0
SECTION
2
ENTITIES
0
TEXT
8
NOTE
10
0
20
360
40
10
1
400V2-BFD-009
0
TEXT
8
NOTE
10
0
20
340
40
10
1
铝板支架
0
LWPOLYLINE
8
CUT
70
1
10
0
20
0
10
980
20
0
10
980
20
100
10
0
20
100
0
CIRCLE
8
CUT
10
70
20
50
40
38.357688737638966
0
CIRCLE
8
CUT
10
160
20
25
40
10.94137561167283
0
CIRCLE
8
CUT
10
230
20
25
40
10.94137561167283
0
CIRCLE
8
CUT
10
300
20
25
40
10.94137561167283
0
CIRCLE
8
CUT
10
370
20
25
40
10.94137561167283
0
CIRCLE
8
CUT
10
440
20
25
40
10.94137561167283
0
CIRCLE
8
CUT
10
510
20
25
40
10.94137561167283
0
CIRCLE
8
CUT
10
580
20
25
40
10.94137561167283
0
CIRCLE
8
CUT
10
650
20
25
40
10.94137561167283
0
CIRCLE
8
CUT
10
720
20
25
40
10.94137561167283
0
CIRCLE
8
CUT
10
790
20
25
40
10.94137561167283
0
CIRCLE
8
CUT
10
860
20
25
40
10.94137561167283
0
CIRCLE
8
CUT
10
930
20
25
40
10.94137561167283
0
CIRCLE
8
CUT
10
160
20
75
40
10.94137561167283
0
CIRCLE
8
CUT
10
230
20
75
40
10.94137561167283
0
CIRCLE
8
CUT
10
300
20
75
40
10.94137561167283
0
CIRCLE
8
CUT
10
370
20
75
40
10.94137561167283
0
CIRCLE
8
CUT
10
440
20
75
40
10.94137561167283
0
CIRCLE
8
CUT
10
510
20
75
40
10.94137561167283
0
CIRCLE
8
CUT
10
580
20
75
40
10.94137561167283
0
CIRCLE
8
CUT
10
650
20
75
40
10.94137561167283
0
CIRCLE
8
CUT
10
720
20
75
40
10.94137561167283
0
CIRCLE
8
CUT
10
790
20
75
40
10.94137561167283
0
CIRCLE
8
CUT
10
860
20
75
40
10.94137561167283
0
CIRCLE
8
CUT
10
930
20
75
40
10.94137561167283
0
LWPOLYLINE
8
CUT
70
1
10
0
20
200
10
980
20
200
10
980
20
300
10
0
20
300
0
CIRCLE
8
CUT
10
70
20
250
40
38.357688737638966
0
CIRCLE
8
CUT
10
160
20
225
40
10.94137561167283
0
CIRCLE
8
CUT
10
230
20
225
40
10.94137561167283
0
CIRCLE
8
CUT
10
300
20
225
40
10.94137561167283
0
CIRCLE
8
CUT
10
370
20
225
40
10.94137561167283
0
CIRCLE
8
CUT
10
440
20
225
40
10.94137561167283
0
CIRCLE
8
CUT
10
510
20
225
40
10.94137561167283
0
CIRCLE
8
CUT
10
580
20
225
40
10.94137561167283
0
CIRCLE
8
CUT
10
650
20
225
40
10.94137561167283
0
CIRCLE
8
CUT
10
720
20
225
40
10.94137561167283
0
CIRCLE
8
CUT
10
790
20
225
40
10.94137561167283
0
CIRCLE
8
CUT
10
860
20
225
40
10.94137561167283
0
CIRCLE
8
CUT
10
930
20
225
40
10.94137561167283
0
CIRCLE
8
CUT
10
160
20
275
40
10.94137561167283
0
CIRCLE
8
CUT
10
230
20
275
40
10.94137561167283
0
CIRCLE
8
CUT
10
300
20
275
40
10.94137561167283
0
CIRCLE
8
CUT
10
370
20
275
40
10.94137561167283
0
CIRCLE
8
CUT
10
440
20
275
40
10.94137561167283
0
CIRCLE
8
CUT
10
510
20
275
40
10.94137561167283
0
CIRCLE
8
CUT
10
580
20
275
40
10.94137561167283
0
CIRCLE
8
CUT
10
650
20
275
40
10.94137561167283
0
CIRCLE
8
CUT
10
720
20
275
40
10.94137561167283
0
CIRCLE
8
CUT
10
790
20
275
40
10.94137561167283
0
CIRCLE
8
CUT
10
860
20
275
40
10.94137561167283
0
CIRCLE
8
CUT
10
930
20
275
40
10.94137561167283
0
ENDSEC
0
EOF
